<svg width="49" height="49" viewBox="0 0 49 49" fill="none" xmlns="http://www.w3.org/2000/svg">
<g clip-path="url(#clip0_4317_38202)">
<path d="M44.6923 6.55102C41.9147 3.77344 38.2222 2.24372 34.295 2.24372C30.6642 2.24372 27.234 3.55122 24.542 5.94341C18.7767 0.747693 9.8574 0.925222 4.3073 6.47532C1.52972 9.25291 0 12.9454 0 16.8727C0 20.7999 1.52972 24.4925 4.3073 27.2701L4.35946 27.3223C3.01818 30.5261 3.41382 33.634 3.65097 35.0582L2.22002 36.6742C1.52302 37.4614 1.59642 38.6688 2.38358 39.3659L10.2683 46.3476C10.6305 46.6684 11.0816 46.826 11.5312 46.8259C12.0586 46.8259 12.5837 46.6089 12.9599 46.1841L14.806 44.0991C16.6552 44.1477 18.4503 43.7808 20.0816 43.0455L22.7723 45.7362C23.259 46.2221 23.8982 46.465 24.5375 46.465C25.177 46.465 25.8165 46.2219 26.3037 45.7356L33.8511 38.1881C34.2256 37.8137 34.2256 37.2065 33.8511 36.832C33.4765 36.4575 32.8696 36.4576 32.495 36.832L24.9481 44.3789C24.722 44.6048 24.3536 44.6048 24.128 44.3794L21.8248 42.0762C22.6666 41.5109 23.4436 40.8346 24.1351 40.0537L34.7068 28.1145C35.2644 27.4848 35.5417 26.6741 35.4874 25.8318C35.4334 24.9922 35.0562 24.222 34.4249 23.6632C34.0725 23.3512 33.6696 23.1327 33.2466 23.0043C33.951 21.7343 33.7006 20.0908 32.5597 19.0805C32.2237 18.7828 31.8371 18.5638 31.4229 18.4294C32.411 17.1249 32.2249 15.2364 30.9569 14.1136C30.3167 13.5465 29.4968 13.2563 28.6511 13.2967C27.8785 13.3335 27.1673 13.6412 26.622 14.1679C26.4414 13.7823 26.1827 13.4339 25.8543 13.1431C25.2222 12.5834 24.41 12.3032 23.5669 12.3545C22.724 12.4057 21.9515 12.7821 21.3917 13.4142L16.2411 19.2311C15.9837 18.513 15.4877 17.9151 14.8187 17.5253C13.3827 16.6885 11.5547 17.0651 10.5662 18.401C10.5662 18.401 5.32453 25.498 5.3006 25.5351C3.11551 23.1677 1.9176 20.1122 1.9176 16.8725C1.9176 13.4574 3.24778 10.2466 5.66313 7.83115C8.07819 5.41608 11.2891 4.0861 14.7045 4.0861C18.1198 4.0861 21.3308 5.41608 23.7458 7.83115L23.8599 7.94522C24.0398 8.12515 24.2838 8.22602 24.5379 8.22602H24.5439C24.8003 8.22439 25.0453 8.12027 25.2243 7.9368L25.2577 7.90254C27.6727 5.48997 30.8818 4.16132 34.2948 4.16132C37.7097 4.16132 40.9207 5.4915 43.3361 7.90694C45.7517 10.322 47.0819 13.5328 47.0819 16.9482C47.0819 20.3635 45.7517 23.5744 43.3361 25.9894C43.333 25.9925 43.3299 25.9957 43.3268 25.9988L38.5738 30.7528C38.1994 31.1272 38.1994 31.7344 38.5738 32.1089C38.7611 32.2961 39.0065 32.3897 39.2519 32.3897C39.4974 32.3897 39.7427 32.2961 39.9299 32.1089L44.6548 27.384C44.6579 27.381 44.6609 27.3779 44.664 27.3747L44.6966 27.3411C47.4717 24.5646 48.9999 20.8739 48.9999 16.9485C48.9999 13.0208 47.4701 9.32823 44.6923 6.55102ZM12.108 19.5419C12.5136 18.9937 13.264 18.8392 13.8534 19.1825C14.1687 19.3662 14.3905 19.6626 14.4777 20.0171C14.5648 20.3716 14.506 20.737 14.3119 21.0461C14.3098 21.0494 14.3078 21.0527 14.3058 21.056L13.5491 22.294C13.2901 22.7179 13.3977 23.2697 13.7973 23.5651C14.197 23.8606 14.7559 23.8019 15.0853 23.4298L22.8277 14.6858C23.0479 14.437 23.3518 14.2891 23.6833 14.2689C24.0147 14.2491 24.3344 14.3589 24.5831 14.5792C24.8318 14.7994 24.9798 15.1032 25 15.4347C25.0201 15.7663 24.9099 16.0858 24.6896 16.3345L17.9025 23.9998C17.5514 24.3963 17.5882 25.0023 17.9847 25.3534C18.3812 25.7044 18.9872 25.6676 19.3383 25.2712L27.8864 15.6173C28.1034 15.3723 28.4073 15.2284 28.7423 15.2125C29.0852 15.1963 29.4217 15.3158 29.6856 15.5496C30.2232 16.0256 30.2908 16.8305 29.8363 17.3438L21.2881 26.9977C20.937 27.3942 20.9738 28.0002 21.3703 28.3513C21.7669 28.7023 22.3729 28.6655 22.7239 28.2691L29.5115 20.6035C29.73 20.3567 30.0338 20.211 30.3669 20.1929C30.7042 20.1745 31.0321 20.2895 31.2883 20.5164C31.8137 20.9816 31.8713 21.7777 31.4167 22.291L24.6294 29.9562C24.2783 30.3527 24.3152 30.9587 24.7116 31.3099C24.8941 31.4714 25.121 31.5508 25.3469 31.5508C25.6119 31.5508 25.8757 31.4416 26.0652 31.2276L31.4089 25.1927C31.8581 24.6867 32.6402 24.6446 33.1536 25.0991C33.4032 25.3201 33.5522 25.624 33.5735 25.9551C33.5946 26.2835 33.4871 26.599 33.2708 26.8432L22.6993 38.7823C20.6153 41.136 17.6104 42.3685 14.454 42.1635C14.1578 42.1443 13.8704 42.2629 13.6739 42.4847L11.5313 44.9045L3.66313 37.9374L5.39181 35.985C5.58427 35.7676 5.66791 35.4748 5.6192 35.1885L5.59441 35.0453C5.37382 33.7791 4.70351 29.9309 6.9576 26.5021L12.108 19.5419Z" fill="white"/>
<path d="M36.2031 35.404C36.7317 35.404 37.1602 34.9756 37.1602 34.447C37.1602 33.9185 36.7317 33.49 36.2031 33.49C35.6746 33.49 35.2461 33.9185 35.2461 34.447C35.2461 34.9756 35.6746 35.404 36.2031 35.404Z" fill="white"/>
</g>
<defs>
<clipPath id="clip0_4317_38202">
<rect width="48.9999" height="48.9999" fill="white"/>
</clipPath>
</defs>
</svg>
